<?xml version="1.0" encoding="UTF-8" standalone="no"?>
<svg
   version="1.1"
   preserveAspectRatio="none"
   x="0px"
   y="0px"
   viewBox="0 0 100 100"
   id="svg11"
   sodipodi:docname="icon.svg"
   inkscape:version="1.1.1 (3bf5ae0d25, 2021-09-20)"
   xmlns:inkscape="http://www.inkscape.org/namespaces/inkscape"
   xmlns:sodipodi="http://sodipodi.sourceforge.net/DTD/sodipodi-0.dtd"
   xmlns:xlink="http://www.w3.org/1999/xlink"
   xmlns="http://www.w3.org/2000/svg"
   xmlns:svg="http://www.w3.org/2000/svg">
  <sodipodi:namedview
     id="namedview13"
     pagecolor="#ffffff"
     bordercolor="#666666"
     borderopacity="1.0"
     inkscape:pageshadow="2"
     inkscape:pageopacity="0.0"
     inkscape:pagecheckerboard="0"
     showgrid="false"
     inkscape:zoom="7.19"
     inkscape:cx="75.591099"
     inkscape:cy="54.03338"
     inkscape:window-width="1920"
     inkscape:window-height="1027"
     inkscape:window-x="1912"
     inkscape:window-y="1072"
     inkscape:window-maximized="1"
     inkscape:current-layer="svg11" />
  <defs
     id="defs5">
    <g
       id="a">
      <path
         fill="#000000"
         stroke="none"
         d=" M 83.4 36 Q 89.9 25.05 93.55 18.85 L 86.05 13.85 6.5 13.85 Q 10.3 20.55 14 26.65 23.4 42.25 26.7 48.65 28.6 52.35 31.95 57.9 36.7 65.9 37.1 66.65 39.4 71.45 41.65 75.45 44.8 81 46.25 81.5 51.3 86.05 53.15 86.05 53.35 86.15 53.55 86.2 54.45 85.25 56.5 82 58.6 78.65 60.35 75.35 61.6 72.95 66.95 64.1 72.1 55.6 72.5 54.85 73.9 52.1 83.4 36 M 87.8 22.15 Q 85.7 25.2 81.65 32 76.5 40.75 70.2 52.15 54.65 78 53.4 80.3 L 39.45 55.6 Q 36.65 49.8 33.05 43.95 32.95 43.85 32.9 43.75 24.4 28.3 20.6 22.4 L 87.8 22.15 M 46.75 76.05 Q 46.75 76 46.75 75.95 46.8 76.1 46.9 76.25 46.8 76.15 46.75 76.05 M 73.6 38.4 Q 77.9 31.05 80.35 26.95 L 27.25 26.95 Q 29.8 31.35 32.25 35.45 38.55 45.9 40.75 50.1 42.05 52.6 44.25 56.3 47.4 61.6 47.7 62.15 49.2 65.3 50.75 68 52.85 71.7 53.65 71.85 54.2 71.2 55.6 69.05 57 66.8 58.2 64.55 59.05 63 62.6 57.1 66.05 51.45 66.3 50.95 67.25 49.1 73.6 38.4 M 64.95 30.7 Q 61.45 36.55 57.3 44.15 51.25 54.15 48.45 58.9 L 42.7 48.75 Q 34.8 34.1 31.7 29.25 L 65.85 29.15 Q 65.4 29.9 64.95 30.7 Z"
         id="path2" />
    </g>
  </defs>
  <g
     transform="matrix( 1, 0, 0, 1, 0,0) "
     id="g9"
     style="fill:#6c5353">
    <use
       xlink:href="#a"
       id="use7"
       style="fill:#6c5353" />
  </g>
  <text
     xml:space="preserve"
     style="font-size:53.3333px;line-height:1.25;font-family:sans-serif"
     x="16.82893"
     y="78.164116"
     id="text35707"><tspan
       sodipodi:role="line"
       id="tspan35705"></tspan></text>
  <path
     style="fill:#ff00ff;fill-opacity:0.694118;stroke-width:0.139082"
     d="M 53.252942,71.496477 C 52.5783,71.02394 50.599449,67.751127 48.748917,64.047288 48.194741,62.938108 47.017912,60.810153 46.133739,59.318498 43.314143,54.561665 42.774807,53.620622 40.753209,49.930459 38.864027,46.482004 35.621738,40.86494 33.447627,37.273992 31.271922,33.680409 27.460959,27.15193 27.510191,27.102697 c 0.02858,-0.02858 11.881701,-0.03615 26.340275,-0.01683 l 26.288314,0.03513 -5.614001,9.527121 c -3.0877,5.239917 -6.21769,10.591099 -6.955534,11.891516 -0.737843,1.300418 -2.79,4.773992 -4.560348,7.719055 -1.770349,2.945062 -3.680295,6.168289 -4.244323,7.162726 -0.564029,0.994436 -1.366052,2.402642 -1.782275,3.129346 -0.87368,1.525402 -3.238117,5.146036 -3.360591,5.146036 -0.04552,0 -0.211465,-0.09015 -0.368766,-0.200324 z m -0.03569,-20.419011 c 2.572687,-4.30262 5.723128,-9.692102 7.000982,-11.976624 1.277854,-2.284523 3.038174,-5.363117 3.91182,-6.841319 0.873647,-1.478202 1.625938,-2.785334 1.671757,-2.904736 0.07522,-0.196015 -1.579292,-0.217096 -17.038666,-0.217096 -9.417086,0 -17.121974,0.0389 -17.121974,0.08644 0,0.04754 0.462271,0.845527 1.027268,1.773297 1.742635,2.861542 4.376507,7.535545 8.047563,14.281004 1.188637,2.184085 3.206959,5.814127 4.48516,8.06676 1.278201,2.252633 2.509912,4.424276 2.737136,4.825876 0.227224,0.401599 0.455482,0.729992 0.507239,0.729761 0.05176,-2.78e-4 2.199029,-3.520747 4.771715,-7.823366 z"
     id="path44036" />
  <path
     style="fill:#00ff00;fill-opacity:0.694118;stroke-width:0.139082"
     d="M 46.485974,67.880873 C 42.684236,61.144446 39.032524,54.568846 38.37106,53.268428 36.976081,50.52595 35.476921,47.816473 34.100086,45.549374 33.565838,44.66968 31.940012,41.821975 30.487139,39.22114 29.034267,36.620306 27.00214,33.021558 25.971303,31.223922 24.387692,28.46233 23.512091,26.986967 21.049517,22.930863 l -0.264054,-0.434923 19.44037,-0.08405 c 10.692203,-0.04623 25.743152,-0.115371 33.446552,-0.153654 l 14.006182,-0.06961 -1.294945,1.979397 c -2.905928,4.441873 -7.986872,13.102881 -13.644769,23.258953 -1.363682,2.447844 -5.777846,9.958275 -9.809254,16.689847 -4.031408,6.731572 -7.82518,13.088118 -8.430605,14.125658 l -1.100771,1.886437 z m 8.208958,2.668501 c 1.025558,-1.512405 2.127966,-3.343271 3.789445,-6.293463 0.560043,-0.994437 2.592256,-4.436718 4.516026,-7.649513 1.923772,-3.212796 4.103749,-6.905424 4.844393,-8.205842 0.740645,-1.300417 3.872413,-6.651599 6.959484,-11.891516 l 5.612856,-9.527121 -26.566578,-0.03513 c -14.611619,-0.01932 -26.589187,-0.01252 -26.616819,0.01511 -0.05527,0.05528 1.909548,3.422019 6.60211,11.312777 3.585458,6.029116 5.383559,9.153452 6.983806,12.134908 1.254309,2.336929 2.161925,3.91884 4.872064,8.491664 0.974719,1.644645 2.19206,3.830014 2.7052,4.856372 1.614013,3.22827 3.515199,6.487153 4.350114,7.456668 0.200477,0.232796 0.863974,0.760673 0.956102,0.760673 0.01381,0 0.460118,-0.641516 0.991797,-1.425591 z"
     id="path44453" />
  <path
     style="fill:#6c5353;fill-opacity:0.694118;stroke-width:0.139082"
     d="M 52.642559,85.891915 C 52.062149,85.714259 50.952718,85.105768 50.030739,84.459408 48.693321,83.5218 45.995638,81.311855 45.166594,80.474695 43.757449,79.051757 41.640939,75.502967 38.589686,69.447079 37.677185,67.636018 35.511024,63.755629 33.775996,60.823992 29.267732,53.206477 28.858497,52.494669 27.158513,49.313762 23.805599,43.039993 21.71307,39.402907 14.670385,27.607789 10.338433,20.352617 6.7454798,14.210419 6.7454798,14.060065 c 0,-0.04528 17.8531072,-0.08232 39.6735712,-0.08232 h 39.673572 l 3.65049,2.434733 c 2.007769,1.339103 3.650489,2.457877 3.650489,2.486163 0,0.02829 -2.292577,3.923963 -5.094615,8.65706 -7.395577,12.49233 -11.346936,19.240088 -13.713061,23.417871 -1.148078,2.027121 -3.982215,6.846315 -6.298086,10.709319 -5.514455,9.198428 -6.190163,10.350206 -8.20758,13.990217 -2.495439,4.502506 -4.527452,7.81116 -5.863869,9.547936 -0.634317,0.824343 -0.817427,0.902396 -1.573832,0.670869 z m 1.471804,-6.65115 c 0.286433,-0.515662 4.007408,-6.75815 8.268834,-13.872198 4.261427,-7.114047 8.672058,-14.593185 9.801402,-16.620306 5.586511,-10.027524 11.222325,-19.666032 14.215797,-24.312206 0.803579,-1.247234 1.438401,-2.288812 1.410718,-2.314616 -0.05805,-0.0541 -67.207399,0.210474 -67.265349,0.265035 -0.02111,0.01987 0.389401,0.717752 0.912242,1.550839 1.862777,2.968115 6.09825,10.318922 9.487587,16.466025 0.864633,1.56815 2.002235,3.557893 2.528004,4.421649 1.578317,2.592925 3.123413,5.360162 4.675595,8.3739 1.152839,2.238368 14.139551,25.451711 15.00026,26.8125 0.110405,0.17455 0.2555,0.283521 0.32243,0.242154 0.06693,-0.04137 0.356049,-0.497115 0.64248,-1.012776 z M 46.826611,75.97821 c -0.0998,-0.0998 -0.16458,-0.108011 -0.16458,-0.02086 0,0.07905 0.04172,0.185443 0.09272,0.236439 0.051,0.051 0.125057,0.06038 0.16458,0.02086 0.03952,-0.03952 -0.0022,-0.14592 -0.09272,-0.236439 z"
     id="path44627" />
</svg>
